<?xml version="1.0" encoding="UTF-8" standalone="no"?>
<svg
   xmlns:dc="http://purl.org/dc/elements/1.1/"
   xmlns:cc="http://creativecommons.org/ns#"
   xmlns:rdf="http://www.w3.org/1999/02/22-rdf-syntax-ns#"
   xmlns:svg="http://www.w3.org/2000/svg"
   xmlns="http://www.w3.org/2000/svg"
   xmlns:sodipodi="http://sodipodi.sourceforge.net/DTD/sodipodi-0.dtd"
   xmlns:inkscape="http://www.inkscape.org/namespaces/inkscape"
   width="18"
   height="18"
   viewBox="0 0 18 18"
   id="svg3336"
   version="1.1"
   inkscape:version="0.91 r13725"
   sodipodi:docname="menu.svg">
  <metadata
     id="metadata3346">
    <rdf:RDF>
      <cc:Work
         rdf:about="">
        <dc:format>image/svg+xml</dc:format>
        <dc:type
           rdf:resource="http://purl.org/dc/dcmitype/StillImage" />
      </cc:Work>
    </rdf:RDF>
  </metadata>
  <defs
     id="defs3344" />
  <sodipodi:namedview
     pagecolor="#ffffff"
     bordercolor="#666666"
     borderopacity="1"
     objecttolerance="10"
     gridtolerance="10"
     guidetolerance="10"
     inkscape:pageopacity="0"
     inkscape:pageshadow="2"
     inkscape:window-width="1680"
     inkscape:window-height="987"
     id="namedview3342"
     showgrid="false"
     inkscape:zoom="45.555555"
     inkscape:cx="11.477816"
     inkscape:cy="9.5450573"
     inkscape:window-x="1358"
     inkscape:window-y="-8"
     inkscape:window-maximized="1"
     inkscape:current-layer="svg3336" />
  <path
     d="M0 0h18v18h-18z"
     fill="none"
     id="path3338" />
  <path
     d="M2 13.5h14v-1.5h-14v1.5zm0-4h14v-1.5h-14v1.5zm0-5.5v1.5h14v-1.5h-14z"
     id="path3340" />
  <path
     style="fill:#ffffff"
     d="m 1.92,4.8024999 0,-0.8854999 7.1305001,0 7.1304999,0 0,0.8854999 0,0.8855001 -7.1304999,0 -7.1305001,0 0,-0.8855001 z"
     id="path3348"
     inkscape:connector-curvature="0" />
  <path
     style="fill:#ffffff"
     d="m 1.92,8.7475 0,-0.8355 7.0804998,0 7.0805002,0 0,0.8355 0,0.8355 -7.0805002,0 -7.0804998,0 0,-0.8355 z"
     id="path3350"
     inkscape:connector-curvature="0" />
  <path
     style="fill:#ffffff"
     d="m 1.92,12.7035 0,-0.7965 7.0805001,0 7.0804999,0 0,0.7965 0,0.7965 -7.0804999,0 -7.0805001,0 0,-0.7965 z"
     id="path3352"
     inkscape:connector-curvature="0" />
</svg>
